<svg width="543" height="326" viewBox="0 0 543 326" fill="none" xmlns="http://www.w3.org/2000/svg">
<rect width="538.674" height="323.458" fill="black" fill-opacity="0" transform="translate(2 2)"/>
<path d="M299.212 46.5957H350.843V71.6588C333.784 78.3042 316.645 81.4409 299.212 71.6588V46.5957Z" fill="white" stroke="black" stroke-width="4"/>
<path d="M214.96 83.3159H201.02V116.359H214.96V83.3159Z" fill="white" stroke="black" stroke-width="4" stroke-linecap="round" stroke-linejoin="round"/>
<path d="M203.989 92.8674C219.885 92.8674 232.772 81.1942 232.772 66.7945C232.772 52.3949 219.885 40.7217 203.989 40.7217C188.092 40.7217 175.205 52.3949 175.205 66.7945C175.205 81.1942 188.092 92.8674 203.989 92.8674Z" fill="white" stroke="black" stroke-width="4" stroke-linecap="round" stroke-linejoin="round"/>
<path d="M198.565 60.8571C200.632 60.8571 202.308 59.0656 202.308 56.8558C202.308 54.646 200.632 52.8545 198.565 52.8545C196.497 52.8545 194.822 54.646 194.822 56.8558C194.822 59.0656 196.497 60.8571 198.565 60.8571Z" fill="white" stroke="black" stroke-width="4" stroke-linecap="round" stroke-linejoin="round"/>
<path d="M219.476 63.697C221.971 63.697 223.993 61.3855 223.993 58.5341C223.993 55.6827 221.971 53.3711 219.476 53.3711C216.981 53.3711 214.958 55.6827 214.958 58.5341C214.958 61.3855 216.981 63.697 219.476 63.697Z" fill="white" stroke="black" stroke-width="4" stroke-linecap="round" stroke-linejoin="round"/>
<path d="M182.818 67.3667C205.018 73.3041 225.154 67.8825 225.154 67.8825" stroke="black" stroke-width="4"/>
<path d="M241.316 54.8384C238.529 50.8395 233.679 47.3753 227.362 44.8713C221.044 42.3673 213.535 40.9326 205.755 40.7434C197.975 40.5542 190.264 41.6187 183.57 43.8062C176.875 45.9937 171.488 49.2089 168.07 53.0569" stroke="black" stroke-width="4" stroke-linejoin="round"/>
<path d="M80.2011 92.1797H50.9951V149.862H80.2011V92.1797Z" stroke="black" stroke-width="4" stroke-linecap="round" stroke-linejoin="round"/>
<path d="M69.7966 115.909C92.2778 115.909 110.502 95.3144 110.502 69.9096C110.502 44.5048 92.2778 23.9102 69.7966 23.9102C47.3154 23.9102 29.0908 44.5048 29.0908 69.9096C29.0908 95.3144 47.3154 115.909 69.7966 115.909V115.909Z" fill="white" stroke="black" stroke-width="4" stroke-linecap="round" stroke-linejoin="round"/>
<path d="M61.8504 69.9098C66.3869 69.9098 70.0646 64.516 70.0646 57.8623C70.0646 51.2087 66.3869 45.8149 61.8504 45.8149C57.3138 45.8149 53.6362 51.2087 53.6362 57.8623C53.6362 64.516 57.3138 69.9098 61.8504 69.9098Z" stroke="black" stroke-width="4" stroke-linecap="round" stroke-linejoin="round"/>
<path d="M89.9581 70.0925C94.7971 70.0925 98.7198 65.189 98.7198 59.1403C98.7198 53.0915 94.7971 48.188 89.9581 48.188C85.119 48.188 81.1963 53.0915 81.1963 59.1403C81.1963 65.189 85.119 70.0925 89.9581 70.0925Z" stroke="black" stroke-width="4" stroke-linecap="round" stroke-linejoin="round"/>
<path d="M49.1704 81.9575C49.1704 81.9575 70.8923 81.9575 83.4875 80.8623" stroke="black" stroke-width="4"/>
<path d="M38.2422 40.8478C38.2422 37.7501 35.0425 5.35599 35.0425 5.35599L51.6203 28.7395L61.1154 2L74.1897 24.1749L101.644 7.4212L95.5118 34.2497L121.263 22.3937L108.162 54.5" stroke="black" stroke-width="4" stroke-linejoin="round"/>
<path d="M118.683 203.613C119.198 201.548 173.41 109.131 212.132 112.229C250.854 115.327 284.929 202.58 284.929 202.58" fill="white"/>
<path d="M118.683 203.613C119.198 201.548 173.41 109.131 212.132 112.229C250.854 115.327 284.929 202.58 284.929 202.58" stroke="black" stroke-width="4"/>
<path d="M2 325.458C5.09781 299.644 8.19555 133.397 67.053 136.495C125.91 139.592 140.367 294.481 140.367 294.481" fill="white"/>
<path d="M2 325.458C5.09781 299.644 8.19555 133.397 67.053 136.495C125.91 139.592 140.367 294.481 140.367 294.481" stroke="black" stroke-width="4"/>
<path d="M337.659 65.394H317.762V104.909H337.659V65.394Z" fill="white" stroke="black" stroke-width="4" stroke-linecap="round" stroke-linejoin="round"/>
<path d="M325.028 69.0344C339.285 69.0344 350.843 58.2858 350.843 45.0267C350.843 31.7677 339.285 21.019 325.028 21.019C310.771 21.019 299.213 31.7677 299.213 45.0267C299.213 58.2858 310.771 69.0344 325.028 69.0344Z" fill="white" stroke="black" stroke-width="4" stroke-linecap="round" stroke-linejoin="round"/>
<path d="M263.245 123.975C263.245 123.975 281.727 84.6154 324.684 83.3161C367.641 82.0169 388.636 154.279 388.636 154.279" fill="white"/>
<path d="M263.245 123.975C263.245 123.975 281.727 84.6154 324.684 83.3161C367.641 82.0169 388.636 154.279 388.636 154.279" stroke="black" stroke-width="4"/>
<path d="M263.245 123.975C263.245 123.975 281.727 84.6154 324.684 83.3161C367.641 82.0169 388.636 154.279 388.636 154.279" stroke="black" stroke-width="4"/>
<path d="M305.626 43.9895C308.554 43.9895 310.928 42.6631 310.928 41.027C310.928 39.3908 308.554 38.0645 305.626 38.0645C302.697 38.0645 300.323 39.3908 300.323 41.027C300.323 42.6631 302.697 43.9895 305.626 43.9895Z" fill="white" stroke="black" stroke-width="4" stroke-linecap="round" stroke-linejoin="round"/>
<path d="M329.365 44.3549C332.49 44.3549 335.024 42.8021 335.024 40.8867C335.024 38.9713 332.49 37.4185 329.365 37.4185C326.24 37.4185 323.707 38.9713 323.707 40.8867C323.707 42.8021 326.24 44.3549 329.365 44.3549Z" fill="white" stroke="black" stroke-width="4" stroke-linecap="round" stroke-linejoin="round"/>
<path d="M299.901 50.5317C299.901 50.5317 308.737 57.8624 318.594 56.7672" stroke="black" stroke-width="4"/>
<path d="M388.636 138.179H350.357V154.278H388.636V138.179Z" fill="white" stroke="black" stroke-width="4" stroke-linecap="round" stroke-linejoin="round"/>
<path d="M291.048 213.689C291.048 213.689 320.5 147.306 371.388 149.132C422.276 150.957 429.942 205.353 429.942 205.353" fill="white"/>
<path d="M291.048 213.689C291.048 213.689 320.5 147.306 371.388 149.132C422.276 150.957 429.942 205.353 429.942 205.353" stroke="black" stroke-width="4"/>
<path d="M291.048 213.689C291.048 213.689 320.5 147.306 371.388 149.132C422.276 150.957 429.942 205.353 429.942 205.353" stroke="black" stroke-width="4"/>
<path d="M400.206 96.4448H341.603V119.284H400.206V96.4448Z" fill="white" stroke="black" stroke-width="4" stroke-linecap="round" stroke-linejoin="round"/>
<path d="M371.389 149.131C390.017 149.131 405.119 139.232 405.119 127.02C405.119 114.809 390.017 104.909 371.389 104.909C352.761 104.909 337.66 114.809 337.66 127.02C337.66 139.232 352.761 149.131 371.389 149.131Z" fill="white" stroke="black" stroke-width="4" stroke-linecap="round" stroke-linejoin="round"/>
<path d="M357.11 122.846C359.631 122.846 361.674 120.721 361.674 118.1C361.674 115.479 359.631 113.354 357.11 113.354C354.59 113.354 352.547 115.479 352.547 118.1C352.547 120.721 354.59 122.846 357.11 122.846Z" fill="white" stroke="black" stroke-width="4" stroke-linecap="round" stroke-linejoin="round"/>
<path d="M387.046 128.322C389.97 128.322 392.34 126.279 392.34 123.759C392.34 121.238 389.97 119.195 387.046 119.195C384.122 119.195 381.752 121.238 381.752 123.759C381.752 126.279 384.122 128.322 387.046 128.322Z" fill="white" stroke="black" stroke-width="4" stroke-linecap="round" stroke-linejoin="round"/>
<path d="M367.515 141.83L362.518 129.381L375.797 131.278L367.515 141.83Z" fill="white" stroke="black" stroke-width="4" stroke-linecap="round" stroke-linejoin="round"/>
<path d="M264.2 157.163H238.645V190.75H264.2V157.163Z" fill="white" stroke="black" stroke-width="4" stroke-linecap="round" stroke-linejoin="round"/>
<path d="M248.531 116.359C252.237 116.359 255.242 112.603 255.242 107.97C255.242 103.336 252.237 99.5796 248.531 99.5796C244.824 99.5796 241.819 103.336 241.819 107.97C241.819 112.603 244.824 116.359 248.531 116.359V116.359Z" fill="white" stroke="black" stroke-width="4" stroke-linecap="round" stroke-linejoin="round"/>
<path d="M248.531 136.242C257.228 136.242 264.278 130.406 264.278 123.206C264.278 116.006 257.228 110.169 248.531 110.169C239.834 110.169 232.784 116.006 232.784 123.206C232.784 130.406 239.834 136.242 248.531 136.242V136.242Z" fill="white" stroke="black" stroke-width="4" stroke-linecap="round" stroke-linejoin="round"/>
<path d="M251.056 180.528C267.589 180.528 280.992 168.76 280.992 154.243C280.992 139.726 267.589 127.957 251.056 127.957C234.523 127.957 221.12 139.726 221.12 154.243C221.12 168.76 234.523 180.528 251.056 180.528Z" fill="white" stroke="black" stroke-width="4" stroke-linecap="round" stroke-linejoin="round"/>
<path d="M238.721 150.951C241.715 150.951 244.142 148.87 244.142 146.304C244.142 143.738 241.715 141.658 238.721 141.658C235.727 141.658 233.3 143.738 233.3 146.304C233.3 148.87 235.727 150.951 238.721 150.951V150.951Z" fill="white" stroke="black" stroke-width="4" stroke-linecap="round" stroke-linejoin="round"/>
<path d="M265.052 152.5C268.046 152.5 270.473 149.957 270.473 146.821C270.473 143.684 268.046 141.141 265.052 141.141C262.058 141.141 259.631 143.684 259.631 146.821C259.631 149.957 262.058 152.5 265.052 152.5Z" fill="white" stroke="black" stroke-width="4" stroke-linecap="round" stroke-linejoin="round"/>
<path d="M241.659 160.859C241.771 163.311 242.734 165.623 244.35 167.316C245.966 169.009 248.111 169.954 250.341 169.956C252.57 169.952 254.713 169.006 256.327 167.313C257.941 165.62 258.903 163.31 259.015 160.859H241.659Z" stroke="black" stroke-width="4" stroke-linecap="round" stroke-linejoin="round"/>
<path d="M224.522 256.79C224.522 256.79 204.387 195.351 235.881 189.156C267.374 182.96 305.58 195.351 288.542 252.143" fill="white"/>
<path d="M224.522 256.79C224.522 256.79 204.387 195.351 235.881 189.156C267.374 182.96 305.58 195.351 288.542 252.143" stroke="black" stroke-width="4"/>
<path d="M2 325.458C5.09781 299.644 8.19555 133.397 67.053 136.495C125.91 139.592 140.367 294.481 140.367 294.481" stroke="black" stroke-width="4"/>
<path d="M316.942 211.481H461.973V304.481H316.942V211.481Z" fill="#FF8A00" stroke="black" stroke-width="4" stroke-linecap="round" stroke-linejoin="round"/>
<path d="M277.942 195.168L316.942 211.481V304.481L277.942 277.481V195.168Z" fill="#1CB893" stroke="black" stroke-width="4" stroke-linecap="round" stroke-linejoin="round"/>
<path d="M277.942 195.168L397.942 194.481L461.942 211.481H316.942L277.942 195.168Z" fill="#3976D0" stroke="black" stroke-width="4" stroke-linecap="round" stroke-linejoin="round"/>
<path d="M355.657 266.692C362.213 266.692 367.529 256.909 367.529 244.841C367.529 232.773 362.213 222.99 355.657 222.99C349.1 222.99 343.785 232.773 343.785 244.841C343.785 256.909 349.1 266.692 355.657 266.692Z" stroke="black" stroke-width="4" stroke-linecap="round" stroke-linejoin="round"/>
<path d="M355.657 249.852C357.367 249.852 358.754 247.609 358.754 244.841C358.754 242.074 357.367 239.83 355.657 239.83C353.946 239.83 352.56 242.074 352.56 244.841C352.56 247.609 353.946 249.852 355.657 249.852Z" stroke="black" stroke-width="4" stroke-linecap="round" stroke-linejoin="round"/>
<path d="M416.565 268.069C422.932 268.069 428.093 257.284 428.093 243.981C428.093 230.677 422.932 219.893 416.565 219.893C410.198 219.893 405.037 230.677 405.037 243.981C405.037 257.284 410.198 268.069 416.565 268.069Z" stroke="black" stroke-width="4" stroke-linecap="round" stroke-linejoin="round"/>
<path d="M416.565 248.11C418.267 248.11 419.646 246.261 419.646 243.981C419.646 241.7 418.267 239.852 416.565 239.852C414.863 239.852 413.484 241.7 413.484 243.981C413.484 246.261 414.863 248.11 416.565 248.11Z" stroke="black" stroke-width="4" stroke-linecap="round" stroke-linejoin="round"/>
<path d="M329.091 268.445C329.091 268.445 355.357 301.945 406.591 292.945C457.825 283.945 436.591 251.445 436.591 251.445" stroke="black" stroke-width="4" stroke-linecap="round" stroke-linejoin="round"/>
<path d="M218.557 212.191C218.557 212.191 238.942 243.068 277.942 236.324" stroke="black" stroke-width="4" stroke-linecap="round" stroke-linejoin="round"/>
<path d="M324.291 168.141C324.291 168.141 291.037 154.074 337.942 194.824" stroke="black" stroke-width="4" stroke-linecap="round" stroke-linejoin="round"/>
<path d="M418.278 175.574C418.278 175.574 446.438 172.925 412.88 198.449" stroke="black" stroke-width="4" stroke-linecap="round" stroke-linejoin="round"/>
<path d="M484.92 190.022C483.69 190.433 478.189 182.969 476.952 182.543C475.585 182.072 467.364 184.144 466.452 183.018C465.626 182 470.671 175.491 470.745 174.163C470.828 172.695 466.982 164.59 467.749 163.385C468.442 162.295 475.73 165.464 476.958 165.079C478.316 164.653 484.407 157.685 485.809 158.052C487.077 158.383 487.193 166.784 487.868 167.896C488.613 169.124 496.634 172.644 496.705 174.105C496.769 175.427 488.309 178.599 487.457 179.608C486.515 180.724 486.279 189.567 484.92 190.022V190.022Z" fill="#1CB893" stroke="black" stroke-width="4" stroke-linecap="square" stroke-linejoin="round"/>
<path d="M522.376 234.68C520.465 235.317 511.925 223.755 510.004 223.096C507.881 222.367 495.117 225.575 493.701 223.832C492.419 222.255 500.251 212.174 500.367 210.117C500.495 207.844 494.525 195.29 495.715 193.424C496.791 191.736 508.106 196.643 510.014 196.047C512.122 195.387 521.578 184.595 523.755 185.163C525.725 185.676 525.905 198.688 526.952 200.41C528.109 202.313 540.563 207.765 540.673 210.027C540.773 212.074 527.637 216.987 526.314 218.551C524.852 220.279 524.486 233.976 522.376 234.68V234.68Z" fill="#1CB893" stroke="black" stroke-width="4" stroke-linecap="square" stroke-linejoin="round"/>
<path d="M258.616 318.841C257.412 319.244 252.028 311.936 250.816 311.519C249.478 311.059 241.431 313.087 240.538 311.985C239.73 310.988 244.668 304.616 244.741 303.316C244.822 301.879 241.058 293.944 241.808 292.765C242.487 291.698 249.62 294.8 250.823 294.423C252.152 294.006 258.114 287.185 259.486 287.543C260.728 287.868 260.842 296.092 261.502 297.181C262.231 298.383 270.083 301.829 270.152 303.259C270.215 304.553 261.933 307.658 261.099 308.647C260.178 309.739 259.947 318.396 258.616 318.841V318.841Z" fill="#1CB893" stroke="black" stroke-width="4" stroke-linecap="square" stroke-linejoin="round"/>
</svg>
