<svg width="21" height="23" viewBox="0 0 21 23" fill="none" xmlns="http://www.w3.org/2000/svg">
<path d="M1.71777 5.6084H3.71777H19.7178" stroke="black" stroke-width="2" stroke-linecap="round" stroke-linejoin="round"/>
<path d="M6.71777 5.6084V3.6084C6.71777 3.07797 6.92849 2.56926 7.30356 2.19418C7.67863 1.81911 8.18734 1.6084 8.71777 1.6084H12.7178C13.2482 1.6084 13.7569 1.81911 14.132 2.19418C14.5071 2.56926 14.7178 3.07797 14.7178 3.6084V5.6084M17.7178 5.6084V19.6084C17.7178 20.1388 17.5071 20.6475 17.132 21.0226C16.7569 21.3977 16.2482 21.6084 15.7178 21.6084H5.71777C5.18734 21.6084 4.67863 21.3977 4.30356 21.0226C3.92849 20.6475 3.71777 20.1388 3.71777 19.6084V5.6084H17.7178Z" stroke="black" stroke-width="2" stroke-linecap="round" stroke-linejoin="round"/>
<path d="M8.71777 10.6084V16.6084" stroke="black" stroke-width="2" stroke-linecap="round" stroke-linejoin="round"/>
<path d="M12.7178 10.6084V16.6084" stroke="black" stroke-width="2" stroke-linecap="round" stroke-linejoin="round"/>
</svg>
